<svg width="20" height="20" viewBox="0 0 20 20" fill="none" xmlns="http://www.w3.org/2000/svg">
<path fill-rule="evenodd" clip-rule="evenodd" d="M12.997 3.27385C11.5466 2.62757 9.92606 2.46747 8.37719 2.81741C6.82832 3.16736 5.43407 4.00861 4.40237 5.2157C3.37067 6.42278 2.75681 7.93103 2.65233 9.5155C2.54785 11.1 2.95835 12.6758 3.82262 14.0079C4.68688 15.34 5.9586 16.357 7.44811 16.9073C8.93762 17.4576 10.5651 17.5117 12.0879 17.0614C13.6106 16.6112 14.947 15.6808 15.8978 14.409C16.8485 13.1372 17.3627 11.5921 17.3636 10.0042V9.25195C17.3636 8.80008 17.73 8.43377 18.1818 8.43377C18.6337 8.43377 19 8.80008 19 9.25195V10.0047C18.9989 11.9455 18.3704 13.8344 17.2084 15.3888C16.0463 16.9432 14.413 18.0804 12.5518 18.6307C10.6907 19.1809 8.70153 19.1149 6.88102 18.4423C5.06051 17.7697 3.50619 16.5266 2.44986 14.8985C1.39354 13.2704 0.891812 11.3444 1.01951 9.40783C1.14721 7.47126 1.89749 5.62784 3.15845 4.15252C4.41942 2.67719 6.12351 1.649 8.01657 1.22128C9.90963 0.79357 11.8902 0.989255 13.663 1.77915C14.0758 1.96306 14.2613 2.44675 14.0774 2.8595C13.8934 3.27225 13.4098 3.45776 12.997 3.27385Z" fill="#394050"/>
<path fill-rule="evenodd" clip-rule="evenodd" d="M18.7601 2.8804C19.0798 3.19976 19.08 3.7178 18.7607 4.03748L10.5788 12.2275C10.4254 12.381 10.2173 12.4674 10.0002 12.4674C9.78314 12.4675 9.57495 12.3813 9.42146 12.2278L6.96692 9.77322C6.6474 9.4537 6.6474 8.93566 6.96692 8.61614C7.28644 8.29662 7.80448 8.29662 8.124 8.61614L9.99971 10.4919L17.603 2.88098C17.9223 2.5613 18.4404 2.56104 18.7601 2.8804Z" fill="#394050"/>
</svg>
