<svg width="20" height="20" viewBox="0 0 20 20" fill="none" xmlns="http://www.w3.org/2000/svg">
<path fill-rule="evenodd" clip-rule="evenodd" d="M10 2.63636C5.93318 2.63636 2.63636 5.93318 2.63636 10C2.63636 14.0668 5.93318 17.3636 10 17.3636C14.0668 17.3636 17.3636 14.0668 17.3636 10C17.3636 5.93318 14.0668 2.63636 10 2.63636ZM1 10C1 5.02944 5.02944 1 10 1C14.9706 1 19 5.02944 19 10C19 14.9706 14.9706 19 10 19C5.02944 19 1 14.9706 1 10ZM9.18182 6.72727C9.18182 6.2754 9.54813 5.90909 10 5.90909H10.0082C10.4601 5.90909 10.8264 6.2754 10.8264 6.72727C10.8264 7.17914 10.4601 7.54545 10.0082 7.54545H10C9.54813 7.54545 9.18182 7.17914 9.18182 6.72727ZM10 9.18182C10.4519 9.18182 10.8182 9.54813 10.8182 10V13.2727C10.8182 13.7246 10.4519 14.0909 10 14.0909C9.54813 14.0909 9.18182 13.7246 9.18182 13.2727V10C9.18182 9.54813 9.54813 9.18182 10 9.18182Z" fill="#394050"/>
</svg>
