<svg width="20" height="20" viewBox="0 0 20 20" fill="none" xmlns="http://www.w3.org/2000/svg">
<path fill-rule="evenodd" clip-rule="evenodd" d="M2.72356 4.27018L10 9.80386L17.2764 4.27018C17.1411 3.97949 16.8629 3.77778 16.5455 3.77778H3.45455C3.13712 3.77778 2.85887 3.97949 2.72356 4.27018ZM17.3636 6.37392L10.4692 11.6171C10.1875 11.8313 9.81252 11.8313 9.5308 11.6171L2.63636 6.37392V15.3333C2.63636 15.8202 3.00641 16.2222 3.45455 16.2222H16.5455C16.9936 16.2222 17.3636 15.8202 17.3636 15.3333V6.37392ZM1 4.66667C1 3.19797 2.10268 2 3.45455 2H16.5455C17.8973 2 19 3.19797 19 4.66667V15.3333C19 16.802 17.8973 18 16.5455 18H3.45455C2.10268 18 1 16.802 1 15.3333V4.66667Z" fill="#394050"/>
</svg>
