<svg width="18" height="18" viewBox="0 0 18 18" fill="none" xmlns="http://www.w3.org/2000/svg">
<path fill-rule="evenodd" clip-rule="evenodd" d="M9 1.63636C4.93318 1.63636 1.63636 4.93318 1.63636 9C1.63636 13.0668 4.93318 16.3636 9 16.3636C13.0668 16.3636 16.3636 13.0668 16.3636 9C16.3636 4.93318 13.0668 1.63636 9 1.63636ZM0 9C0 4.02944 4.02944 0 9 0C13.9706 0 18 4.02944 18 9C18 13.9706 13.9706 18 9 18C4.02944 18 0 13.9706 0 9ZM9.21119 5.74717C8.83031 5.68184 8.4386 5.75341 8.10543 5.94922C7.77227 6.14502 7.51915 6.45242 7.39091 6.81696C7.24096 7.24323 6.77385 7.46722 6.34758 7.31727C5.92132 7.16732 5.69732 6.70021 5.84727 6.27395C6.10375 5.54486 6.60998 4.93006 7.27631 4.53846C7.94264 4.14685 8.72607 4.0037 9.48783 4.13436C10.2496 4.26502 10.9405 4.66106 11.4383 5.25234C11.9359 5.8435 12.2083 6.59166 12.2073 7.36438C12.2069 8.61649 11.2786 9.44336 10.6157 9.88531C10.2592 10.1229 9.90864 10.2976 9.65036 10.4124C9.52007 10.4703 9.41035 10.5143 9.33128 10.5444C9.29168 10.5595 9.25958 10.5712 9.23621 10.5795L9.20779 10.5894L9.19874 10.5925L9.19556 10.5936L9.1943 10.594C9.19406 10.5941 9.19328 10.5944 8.93455 9.81818L9.19328 10.5944C8.7646 10.7373 8.30124 10.5056 8.15835 10.0769C8.0155 9.64838 8.24698 9.18519 8.67539 9.04213L8.68801 9.03769C8.7006 9.03322 8.72123 9.02573 8.74874 9.01525C8.80392 8.99423 8.88596 8.96147 8.98577 8.91711C9.18773 8.82735 9.45076 8.69525 9.70797 8.52378C10.2722 8.14763 10.5709 7.74747 10.5709 7.36364V7.36242C10.5715 6.97598 10.4353 6.6018 10.1864 6.30616C9.93754 6.01052 9.59207 5.8125 9.21119 5.74717ZM8.18182 13.0909C8.18182 12.639 8.54813 12.2727 9 12.2727H9.00818C9.46005 12.2727 9.82636 12.639 9.82636 13.0909C9.82636 13.5428 9.46005 13.9091 9.00818 13.9091H9C8.54813 13.9091 8.18182 13.5428 8.18182 13.0909Z" fill="#394050"/>
</svg>
