<svg width="20" height="20" viewBox="0 0 20 20" fill="none" xmlns="http://www.w3.org/2000/svg">
<path fill-rule="evenodd" clip-rule="evenodd" d="M10 2.63636C5.93318 2.63636 2.63636 5.93318 2.63636 10C2.63636 14.0668 5.93318 17.3636 10 17.3636C14.0668 17.3636 17.3636 14.0668 17.3636 10C17.3636 5.93318 14.0668 2.63636 10 2.63636ZM1 10C1 5.02944 5.02944 1 10 1C14.9706 1 19 5.02944 19 10C19 14.9706 14.9706 19 10 19C5.02944 19 1 14.9706 1 10Z" fill="#394050"/>
<path fill-rule="evenodd" clip-rule="evenodd" d="M10 5.90909C10.4519 5.90909 10.8182 6.2754 10.8182 6.72727V10C10.8182 10.4519 10.4519 10.8182 10 10.8182C9.54813 10.8182 9.18182 10.4519 9.18182 10V6.72727C9.18182 6.2754 9.54813 5.90909 10 5.90909Z" fill="#394050"/>
<path fill-rule="evenodd" clip-rule="evenodd" d="M9.18182 13.2727C9.18182 12.8209 9.54813 12.4545 10 12.4545H10.0082C10.4601 12.4545 10.8264 12.8209 10.8264 13.2727C10.8264 13.7246 10.4601 14.0909 10.0082 14.0909H10C9.54813 14.0909 9.18182 13.7246 9.18182 13.2727Z" fill="#394050"/>
</svg>
