<svg width="16" height="16" viewBox="0 0 16 16" fill="none" xmlns="http://www.w3.org/2000/svg">
<path fill-rule="evenodd" clip-rule="evenodd" d="M8 0C8.40166 0 8.72727 0.325611 8.72727 0.727273V3.63636C8.72727 4.03803 8.40166 4.36364 8 4.36364C7.59834 4.36364 7.27273 4.03803 7.27273 3.63636V0.727273C7.27273 0.325611 7.59834 0 8 0ZM2.34392 2.34392C2.62794 2.0599 3.08842 2.0599 3.37244 2.34392L5.43062 4.4021C5.71464 4.68612 5.71464 5.14661 5.43062 5.43062C5.14661 5.71464 4.68612 5.71464 4.4021 5.43062L2.34392 3.37244C2.0599 3.08842 2.0599 2.62794 2.34392 2.34392ZM13.6561 2.34392C13.9401 2.62794 13.9401 3.08842 13.6561 3.37244L11.5979 5.43062C11.3139 5.71464 10.8534 5.71464 10.5694 5.43062C10.2854 5.14661 10.2854 4.68612 10.5694 4.4021L12.6276 2.34392C12.9116 2.0599 13.3721 2.0599 13.6561 2.34392ZM0 8C0 7.59834 0.325611 7.27273 0.727273 7.27273H3.63636C4.03803 7.27273 4.36364 7.59834 4.36364 8C4.36364 8.40166 4.03803 8.72727 3.63636 8.72727H0.727273C0.325611 8.72727 0 8.40166 0 8ZM11.6364 8C11.6364 7.59834 11.962 7.27273 12.3636 7.27273H15.2727C15.6744 7.27273 16 7.59834 16 8C16 8.40166 15.6744 8.72727 15.2727 8.72727H12.3636C11.962 8.72727 11.6364 8.40166 11.6364 8ZM5.43062 10.5694C5.71464 10.8534 5.71464 11.3139 5.43062 11.5979L3.37244 13.6561C3.08842 13.9401 2.62794 13.9401 2.34392 13.6561C2.0599 13.3721 2.0599 12.9116 2.34392 12.6276L4.4021 10.5694C4.68612 10.2854 5.14661 10.2854 5.43062 10.5694ZM10.5694 10.5694C10.8534 10.2854 11.3139 10.2854 11.5979 10.5694L13.6561 12.6276C13.9401 12.9116 13.9401 13.3721 13.6561 13.6561C13.3721 13.9401 12.9116 13.9401 12.6276 13.6561L10.5694 11.5979C10.2854 11.3139 10.2854 10.8534 10.5694 10.5694ZM8 11.6364C8.40166 11.6364 8.72727 11.962 8.72727 12.3636V15.2727C8.72727 15.6744 8.40166 16 8 16C7.59834 16 7.27273 15.6744 7.27273 15.2727V12.3636C7.27273 11.962 7.59834 11.6364 8 11.6364Z" fill="#394050"/>
</svg>
